<?xml version="1.0" standalone="no"?>
<!DOCTYPE svg PUBLIC "-//W3C//DTD SVG 20010904//EN"
 "http://www.w3.org/TR/2001/REC-SVG-20010904/DTD/svg10.dtd">
<svg version="1.0" xmlns="http://www.w3.org/2000/svg"
 width="450.000000pt" height="676.000000pt" viewBox="0 0 450.000000 676.000000"
 preserveAspectRatio="xMidYMid meet">
<metadata>
Created by potrace 1.10, written by Peter Selinger 2001-2011
</metadata>
<g transform="translate(0.000000,676.000000) scale(0.100000,-0.100000)"
fill="#000000" stroke="none">
<path d="M19 6744 c12 -9 26 -12 34 -7 17 11 29 11 52 -1 11 -5 32 -9 47 -7
19 2 30 -4 38 -20 7 -12 15 -17 19 -12 3 5 19 16 36 24 56 27 33 34 -109 36
-126 2 -137 0 -117 -13z"/>
<path d="M903 6753 c4 -3 10 -3 14 0 3 4 0 7 -7 7 -7 0 -10 -3 -7 -7z"/>
<path d="M956 6746 c3 -8 12 -17 20 -20 8 -3 14 -16 14 -30 0 -31 16 -41 55
-37 41 4 65 19 59 35 -3 8 -1 16 4 20 5 3 21 -23 37 -57 15 -34 43 -95 63
-135 26 -54 33 -75 24 -84 -8 -8 -15 -8 -26 1 -29 24 -85 -35 -93 -100 -5 -31
-1 -47 15 -69 18 -24 19 -30 7 -40 -8 -7 -15 -20 -15 -29 1 -11 8 -7 25 14 21
26 25 27 31 11 4 -10 2 -21 -3 -25 -12 -7 -23 -71 -12 -71 4 0 12 -12 18 -27
8 -20 10 -22 10 -8 -2 37 1 45 16 45 8 0 17 12 20 28 3 15 10 42 14 60 7 24 6
32 -4 32 -19 0 -17 80 3 103 32 36 37 11 15 -78 -3 -16 -2 -17 6 -5 6 8 11 26
11 40 1 24 1 24 15 6 8 -11 15 -32 15 -47 0 -15 4 -30 9 -33 17 -11 53 -168
47 -207 -4 -26 -2 -38 8 -42 35 -14 47 -396 16 -531 -6 -27 -13 -90 -15 -140
-2 -50 -5 -100 -6 -111 -2 -11 -1 -58 1 -105 l3 -85 8 85 c5 47 9 106 8 131 0
25 5 75 10 110 5 35 13 122 16 194 4 71 10 137 14 145 4 8 4 51 0 95 -5 44
-13 123 -18 175 -10 102 -49 267 -87 368 -13 34 -24 69 -24 77 0 19 59 85 76
85 8 0 14 7 14 16 0 23 69 114 87 114 8 0 24 -5 36 -11 21 -10 21 -9 3 5 -10
8 -24 17 -29 19 -10 3 46 94 68 109 5 4 7 10 3 13 -3 3 -27 -21 -53 -54 -41
-54 -49 -60 -66 -50 -12 6 -23 8 -26 6 -2 -3 5 -8 16 -12 12 -3 21 -10 21 -14
0 -15 -68 -97 -94 -115 -14 -9 -26 -22 -26 -30 0 -19 -37 -49 -50 -41 -6 4 -9
12 -7 18 2 7 -2 19 -10 28 -7 9 -17 34 -20 55 -3 22 -16 53 -28 69 -12 17 -35
56 -50 88 l-27 57 -89 0 c-72 0 -87 -3 -83 -14z m247 -360 c3 -8 -1 -20 -9
-26 -9 -8 -14 -9 -14 -2 0 6 -3 17 -6 26 -4 10 -1 16 9 16 8 0 17 -6 20 -14z
m24 -13 c-4 -3 -7 0 -7 7 0 7 3 10 7 7 3 -4 3 -10 0 -14z m-57 -91 c0 -13 -12
-22 -22 -16 -10 6 -1 24 13 24 5 0 9 -4 9 -8z"/>
<path d="M1169 6742 c13 -24 12 -24 56 -27 17 -2 59 -15 95 -29 35 -14 65 -24
68 -21 5 5 -31 21 -133 60 -38 15 -76 30 -84 33 -11 4 -11 1 -2 -16z"/>
<path d="M1703 6753 c4 -3 10 -3 14 0 3 4 0 7 -7 7 -7 0 -10 -3 -7 -7z"/>
<path d="M1878 6715 c6 -55 -9 -75 -54 -75 -33 0 -96 -35 -119 -67 -9 -12 -22
-15 -53 -10 l-42 5 19 -27 20 -27 -26 -33 c-24 -31 -25 -33 -7 -46 11 -8 30
-19 44 -25 82 -38 95 -47 104 -72 8 -24 6 -32 -17 -56 -18 -19 -25 -35 -21
-45 3 -10 2 -17 -4 -17 -12 0 -45 -97 -37 -109 2 -5 6 -31 7 -57 1 -27 10 -62
20 -79 10 -16 18 -37 18 -46 0 -22 27 -32 51 -18 26 14 49 -4 49 -38 0 -22 -2
-24 -15 -13 -17 14 -31 8 -20 -9 3 -6 17 -11 29 -11 32 0 96 -28 96 -41 0 -6
-6 -23 -14 -37 -8 -15 -33 -65 -56 -112 -42 -83 -72 -132 -97 -158 -7 -7 -13
-22 -13 -33 0 -33 -57 -146 -79 -158 -17 -10 -19 -15 -9 -36 6 -14 18 -27 27
-30 9 -3 26 -13 39 -23 l24 -18 -62 -64 c-69 -73 -103 -127 -131 -207 -23 -68
-23 -69 -2 -52 15 13 15 12 4 -9 -12 -22 -11 -23 8 -12 12 6 29 29 39 50 9 22
20 40 24 40 5 0 8 5 8 12 0 6 18 35 40 64 28 37 57 61 99 83 l59 30 26 -26
c14 -14 23 -29 20 -34 -9 -15 13 -10 26 6 16 20 36 19 44 -1 12 -31 6 -70 -19
-118 -14 -27 -25 -59 -25 -71 0 -27 -47 -72 -85 -80 -16 -4 -41 -15 -55 -24
-14 -8 -34 -20 -45 -26 -11 -6 -24 -20 -30 -32 -5 -12 -17 -24 -26 -26 -44
-12 -75 -151 -57 -257 14 -85 11 -123 -11 -173 -11 -23 -29 -80 -41 -126 -33
-125 -15 -180 44 -136 11 8 28 15 38 15 21 0 17 -6 -34 -60 -15 -15 -32 -48
-39 -71 -7 -24 -18 -51 -26 -60 -7 -8 -13 -22 -13 -30 0 -8 -7 -23 -15 -33 -8
-11 -18 -41 -21 -68 -4 -27 -11 -47 -17 -45 -16 5 -9 298 9 410 8 50 17 122
21 158 l5 66 -32 13 c-68 28 -112 -18 -124 -133 -7 -65 -2 -98 30 -172 7 -17
20 -75 29 -130 9 -55 20 -101 25 -103 5 -2 1 -19 -8 -39 -16 -33 -16 -36 4
-71 12 -21 31 -41 43 -47 11 -5 21 -18 21 -28 0 -10 25 -93 55 -183 59 -176
137 -344 210 -451 45 -65 45 -65 45 -153 l0 -88 -34 -21 c-36 -23 -51 -27 -41
-11 4 6 -13 10 -43 10 -58 0 -92 -28 -92 -76 0 -37 31 -136 70 -220 139 -307
486 -571 901 -686 30 -8 45 -6 80 10 112 49 370 283 509 460 69 88 159 236
181 296 18 51 -10 229 -49 305 -28 56 -47 70 -120 92 -24 7 -45 16 -48 21 -13
20 -24 135 -25 254 0 108 3 143 21 195 23 69 45 173 56 257 4 28 8 52 11 52 2
0 14 -6 26 -14 12 -8 37 -17 54 -21 28 -6 38 -2 64 25 26 26 30 37 27 67 -3
23 3 51 15 77 11 22 22 57 25 79 2 21 23 73 45 115 36 70 40 84 39 152 0 86
-22 150 -60 180 -32 26 -55 25 -103 -2 -21 -12 -41 -20 -43 -17 -2 2 0 22 4
44 24 109 32 135 46 135 8 0 14 7 14 15 0 8 16 21 35 29 19 8 35 20 35 27 0 7
-7 8 -17 4 -10 -4 -29 -10 -43 -13 -14 -3 -30 -12 -36 -20 -10 -14 -12 -13
-18 4 -3 10 -5 42 -5 69 2 89 -22 248 -48 320 -41 117 -41 111 -2 84 19 -13
36 -27 39 -30 3 -3 19 -9 35 -12 17 -3 55 -15 85 -26 30 -11 72 -20 94 -21 30
0 37 -3 32 -16 -4 -9 -2 -13 5 -8 6 3 30 -12 53 -35 39 -38 44 -40 57 -25 12
14 10 19 -9 34 -29 24 -28 34 6 59 22 16 23 20 9 21 -11 0 -18 7 -16 18 3 31
-1 42 -15 42 -7 0 -25 9 -39 20 -30 24 -74 25 -141 5 -62 -19 -110 -19 -129 0
-13 13 -16 13 -27 0 -18 -21 -41 -19 -47 5 -6 22 -19 27 -25 9 -2 -6 -14 8
-27 31 l-24 42 32 25 c23 18 30 30 26 44 -4 11 -2 19 4 19 18 0 12 63 -9 95
-11 17 -20 25 -20 18 0 -7 -7 -10 -16 -6 -16 6 -37 -15 -28 -29 3 -4 14 -8 25
-8 10 0 19 -4 19 -10 0 -13 -37 -13 -45 0 -4 6 -11 8 -16 5 -5 -4 -13 4 -18
17 -6 13 -10 18 -10 12 -1 -7 6 -25 14 -40 8 -16 15 -42 15 -57 0 -16 5 -37
10 -47 6 -10 6 -21 1 -24 -11 -7 -47 33 -55 61 -4 13 -13 20 -20 17 -8 -3 -23
7 -35 22 -12 15 -32 35 -45 43 -88 59 -155 109 -178 134 -28 30 -37 57 -17 57
5 0 8 -4 5 -9 -6 -9 43 -20 62 -13 7 2 12 18 12 37 0 18 7 38 15 45 8 7 15 24
15 39 -1 25 -1 26 -17 6 -14 -17 -15 -18 -9 -2 5 15 2 17 -14 12 -18 -6 -25 3
-21 28 0 4 -4 7 -10 7 -8 0 -8 5 1 15 9 11 9 15 1 15 -7 0 -9 5 -6 10 13 21
-6 67 -33 81 -15 7 -35 20 -45 28 -16 13 -19 13 -28 1 -5 -8 -8 -32 -5 -52 2
-21 0 -41 -5 -44 -14 -9 -10 -41 6 -48 8 -3 15 -10 15 -16 0 -15 -30 -12 -30
3 -1 16 -30 -23 -30 -41 0 -9 7 -11 22 -7 17 6 20 4 15 -9 -7 -18 15 -59 48
-89 20 -19 20 -19 0 -12 -11 3 -40 10 -65 15 -25 5 -67 17 -95 25 -32 11 -89
16 -160 17 -129 1 -228 -22 -370 -85 -84 -37 -249 -140 -275 -173 -18 -21 -38
-17 -46 9 -5 12 -7 25 -6 30 1 4 -4 7 -12 7 -8 0 -18 5 -22 11 -9 15 66 169
83 169 8 0 13 12 13 28 0 15 7 37 15 48 8 12 31 54 51 95 20 41 42 81 49 89 7
8 15 28 19 44 4 16 15 30 27 33 15 4 19 13 17 38 -2 33 15 65 34 65 22 0 46
45 41 76 -6 39 24 111 65 153 31 33 47 38 55 19 3 -7 6 0 6 15 1 38 23 30 32
-10 3 -17 16 -43 28 -58 11 -15 21 -33 21 -39 0 -6 31 -26 68 -45 55 -27 75
-32 103 -27 19 4 44 7 57 6 12 0 22 5 22 10 0 6 5 10 10 10 6 0 10 -7 10 -15
0 -8 7 -15 15 -15 8 0 15 1 15 3 -2 27 -32 94 -46 102 -10 5 -21 11 -24 13 -2
2 2 7 10 12 10 6 11 12 2 22 -6 8 -13 25 -15 39 -9 49 -45 105 -112 175 -36
38 -64 64 -63 58 4 -17 -9 -18 -43 -3 -26 10 -30 16 -24 38 3 14 6 32 7 39 1
6 7 12 14 12 14 0 24 32 24 78 0 43 30 153 47 173 7 9 10 19 6 22 -16 16 -49
4 -89 -33 -24 -22 -48 -40 -54 -40 -5 0 -10 -7 -10 -15 0 -8 -4 -15 -9 -15 -5
0 -12 -7 -15 -15 -7 -20 80 53 100 83 17 26 39 20 25 -6 -4 -9 -11 -34 -14
-54 -3 -20 -12 -52 -20 -70 -8 -18 -18 -52 -21 -75 -3 -23 -11 -54 -16 -68
l-10 -27 -31 30 c-34 33 -34 60 1 69 23 6 17 23 -9 23 -9 0 -27 9 -39 20 -12
11 -26 20 -31 20 -5 0 -18 11 -28 24 -10 13 -30 27 -43 31 -46 14 -51 24 -29
58 35 58 28 67 -50 67 l-69 0 6 -45z m62 -155 c0 -5 -4 -10 -10 -10 -5 0 -10
5 -10 10 0 6 5 10 10 10 6 0 10 -4 10 -10z m-213 -37 c9 -12 16 -12 33 -3 16
9 25 9 33 1 6 -6 25 -11 42 -11 40 0 50 -9 51 -46 l2 -31 -36 19 c-20 10 -44
18 -54 18 -9 0 -20 5 -23 10 -10 15 -28 12 -22 -4 3 -8 -1 -17 -9 -20 -8 -3
-14 -1 -14 4 0 5 -12 15 -27 22 -15 7 -29 22 -32 33 -2 11 -8 23 -15 27 -6 5
5 5 24 2 19 -4 40 -13 47 -21z m-17 -98 c7 -9 10 -18 7 -21 -9 -9 -48 16 -42
27 9 13 21 11 35 -6z m290 0 c0 -8 -7 -15 -15 -15 -8 0 -15 7 -15 15 0 8 7 15
15 15 8 0 15 -7 15 -15z m-20 -60 c0 -8 -7 -15 -15 -15 -16 0 -20 12 -8 23 11
12 23 8 23 -8z m317 -22 c-4 -3 -7 0 -7 7 0 7 3 10 7 7 3 -4 3 -10 0 -14z m41
-32 c3 -8 -1 -12 -9 -9 -7 2 -15 10 -17 17 -3 8 1 12 9 9 7 -2 15 -10 17 -17z
m-98 -6 c0 -8 -7 -15 -15 -15 -8 0 -15 7 -15 15 0 8 7 15 15 15 8 0 15 -7 15
-15z m-262 -12 c-3 -18 78 -101 88 -90 4 3 13 -1 22 -9 14 -14 13 -21 -12 -70
-28 -55 -48 -65 -54 -28 -2 10 -6 26 -9 34 -4 8 -8 29 -10 45 -2 20 -15 40
-38 60 -38 32 -44 45 -20 45 9 0 12 6 9 15 -4 10 0 15 11 15 10 0 15 -6 13
-17z m251 -31 c11 -20 -3 -42 -25 -42 -15 0 -28 35 -19 50 10 16 33 12 44 -8z
m-479 -106 c-13 -13 -35 7 -25 24 5 8 11 8 21 -1 10 -8 12 -15 4 -23z m720
-21 c7 -9 10 -18 7 -22 -8 -7 -37 15 -37 28 0 14 16 11 30 -6z m35 -83 c27
-15 0 -15 -28 -1 -23 13 -37 28 -37 43 0 5 10 0 23 -11 12 -11 31 -25 42 -31z
m-575 -164 c0 -6 -7 -7 -16 -4 -9 3 -18 6 -20 6 -3 0 -3 4 1 10 7 11 35 2 35
-12z m865 -357 c3 -5 1 -12 -5 -16 -5 -3 -10 1 -10 9 0 18 6 21 15 7z m-334
-267 c10 -9 30 -16 44 -16 14 0 25 -6 25 -14 0 -8 4 -14 9 -14 5 0 7 -9 4 -20
-4 -13 6 -30 31 -55 20 -19 36 -39 36 -44 0 -9 39 -30 84 -45 13 -4 16 -11 11
-24 -4 -9 -7 -28 -6 -40 0 -13 -6 -33 -14 -45 -8 -12 -15 -28 -15 -37 0 -8 -4
-22 -10 -30 -8 -12 -11 -12 -27 2 -10 9 -37 18 -60 22 -76 10 -98 19 -125 50
-15 17 -27 42 -28 54 0 15 -7 26 -20 29 -15 4 -18 9 -10 18 15 18 -6 30 -25
15 -12 -10 -15 -9 -16 6 -1 11 -1 25 0 32 1 7 -5 15 -14 18 -17 7 -21 34 -4
34 8 0 10 13 6 38 -4 32 -1 41 16 52 17 10 22 10 33 -5 16 -21 37 -10 29 16
-8 24 21 26 46 3z m690 -81 c-9 -16 -10 -14 -11 12 0 21 3 26 11 18 8 -8 8
-16 0 -30z m-791 -143 c0 -5 -2 -10 -4 -10 -3 0 -8 5 -11 10 -3 6 -1 10 4 10
6 0 11 -4 11 -10z m1120 -71 c0 -6 -4 -7 -10 -4 -5 3 -10 11 -10 16 0 6 5 7
10 4 6 -3 10 -11 10 -16z m-434 -54 c11 -32 28 -63 36 -69 9 -6 26 -18 37 -26
12 -8 21 -25 21 -41 0 -41 -12 -89 -20 -84 -4 3 -10 -4 -13 -14 -6 -25 -59
-60 -65 -43 -2 7 -10 19 -18 26 -15 15 -20 61 -6 52 13 -8 35 11 27 23 -5 9
-10 9 -20 1 -9 -8 -14 -5 -18 10 -3 11 -1 23 4 26 5 3 4 15 -3 27 -6 12 -10
22 -9 22 1 0 -5 17 -13 37 -9 21 -16 44 -16 53 0 8 -4 15 -10 15 -5 0 -10 5
-10 10 0 6 6 10 14 10 7 0 19 7 26 15 20 25 33 13 56 -50z m120 -612 c9 -32
13 -62 17 -118 1 -22 5 -44 9 -50 3 -5 6 -43 6 -84 0 -61 -4 -79 -24 -109 -25
-37 -31 -58 -13 -46 6 3 4 -7 -5 -24 -11 -21 -25 -31 -48 -35 -18 -3 -37 -1
-42 4 -16 14 -48 -10 -41 -32 5 -14 2 -17 -8 -13 -8 3 -18 1 -22 -5 -3 -6 2
-11 13 -11 23 0 35 -52 17 -76 -10 -14 -14 -14 -43 3 -29 16 -32 23 -32 64 0
50 9 62 53 73 23 5 27 11 27 41 0 30 6 38 40 60 23 14 45 23 49 20 14 -8 24
45 23 129 0 58 -4 81 -15 87 -9 5 -15 28 -16 64 -1 49 1 55 18 55 14 0 19 5
15 15 -4 8 -2 15 4 15 5 0 13 -12 18 -27z m-641 -573 c3 -5 2 -10 -4 -10 -5 0
-13 5 -16 10 -3 6 -2 10 4 10 5 0 13 -4 16 -10z m-210 -397 c39 -2 85 -3 103
-3 34 0 49 -17 38 -45 -4 -12 -11 -13 -31 -5 -20 8 -30 6 -42 -5 -12 -12 -34
-14 -116 -10 -56 2 -118 4 -138 5 -25 0 -39 5 -43 17 -9 21 3 32 39 37 17 2
41 8 55 14 14 6 34 8 45 5 11 -4 52 -8 90 -10z m2 -103 c74 0 75 -11 4 -34
-47 -15 -52 -15 -96 4 -51 22 -53 46 -3 36 17 -3 59 -6 95 -6z m218 -30 c3 -5
1 -10 -4 -10 -6 0 -11 5 -11 10 0 6 2 10 4 10 3 0 8 -4 11 -10z"/>
<path d="M2440 5220 c0 -7 3 -10 7 -7 3 4 3 10 0 14 -4 3 -7 0 -7 -7z"/>
<path d="M3268 6753 c6 -2 18 -2 25 0 6 3 1 5 -13 5 -14 0 -19 -2 -12 -5z"/>
<path d="M3460 6730 c0 -30 1 -31 38 -24 42 8 62 20 62 40 0 10 -14 14 -50 14
-49 0 -50 -1 -50 -30z"/>
<path d="M3711 6723 c3 -66 1 -73 -27 -73 -29 0 -97 -37 -89 -49 2 -4 -12 -8
-31 -9 -19 -1 -39 -4 -44 -7 -15 -9 -12 -25 5 -25 8 0 15 -4 15 -10 0 -16 -38
-50 -56 -50 -9 0 -14 -6 -11 -12 2 -7 9 -13 16 -13 6 0 16 -6 20 -14 5 -8 16
-11 26 -7 11 4 22 0 30 -10 15 -21 47 -12 39 11 -6 14 1 16 42 13 46 -3 49 -5
46 -28 -2 -14 -13 -35 -25 -47 -11 -13 -17 -23 -12 -23 4 0 14 8 21 18 12 15
15 15 24 2 8 -12 16 -93 11 -122 0 -4 -3 -119 -7 -255 -3 -136 -9 -291 -12
-343 l-7 -95 -53 1 c-47 1 -53 -1 -49 -18 3 -10 1 -18 -4 -18 -10 0 -59 -48
-60 -59 0 -3 -2 -25 -4 -49 -3 -36 -1 -41 11 -31 8 6 14 18 14 25 0 8 6 14 14
14 17 0 76 68 76 87 0 7 10 17 21 24 17 9 24 8 36 -4 12 -12 13 -24 3 -78 -7
-35 -16 -69 -21 -76 -7 -7 -6 -14 1 -18 17 -10 2 -24 -20 -18 -31 8 -100 -65
-100 -107 0 -20 18 -9 24 15 4 14 11 25 16 25 5 0 7 7 4 15 -4 8 -1 15 5 15 6
0 11 -5 11 -11 0 -7 14 -10 36 -7 41 5 57 -13 43 -49 -7 -19 -16 -23 -49 -23
-22 0 -50 -6 -61 -12 -17 -10 -23 -10 -26 0 -3 8 -25 12 -63 12 -32 0 -62 5
-65 10 -15 23 -89 8 -134 -28 -20 -16 -22 -24 -16 -60 4 -23 12 -42 19 -42 17
0 56 -43 56 -62 0 -17 38 -37 58 -31 21 8 13 20 -18 27 -32 6 -39 26 -15 46 8
7 13 16 10 20 -3 5 8 11 25 15 28 6 72 -8 142 -46 26 -13 59 -11 92 6 16 9 31
13 33 11 7 -6 5 -167 -1 -173 -3 -4 -2 -11 3 -17 4 -6 4 -51 0 -100 -5 -52 -5
-96 1 -106 5 -9 6 -26 3 -38 -3 -13 -1 -22 6 -22 15 0 14 -51 -3 -91 -7 -19
-12 -50 -10 -69 8 -79 10 -287 3 -312 -5 -17 -2 -33 7 -45 18 -24 17 -63 -2
-88 -12 -15 -15 -44 -13 -120 1 -55 -2 -121 -6 -147 -5 -30 -4 -48 2 -48 5 0
10 -6 10 -12 1 -7 4 -69 8 -138 4 -69 11 -129 16 -135 10 -11 12 -69 2 -78 -9
-9 -14 -61 -14 -132 0 -33 0 -148 0 -256 l-1 -196 45 -22 c25 -12 60 -23 79
-25 19 -2 39 -5 44 -8 5 -3 24 -9 42 -13 25 -5 32 -3 32 9 0 9 6 16 14 16 8 0
17 6 19 13 3 7 6 5 6 -5 1 -10 -6 -18 -14 -18 -8 0 -15 -8 -15 -17 0 -9 3 -14
6 -11 3 3 31 0 62 -7 31 -7 60 -11 64 -9 5 3 8 0 8 -7 0 -12 39 -9 73 6 15 6
18 4 15 -11 -2 -15 10 -21 67 -36 39 -10 85 -26 103 -34 18 -8 45 -16 60 -17
15 -1 32 -7 37 -13 6 -7 22 -14 38 -16 l27 -5 0 319 c0 210 -3 317 -10 313 -5
-3 -10 -1 -10 4 0 6 5 11 10 11 6 0 10 42 10 107 0 105 0 106 -20 88 -11 -10
-20 -25 -20 -34 0 -11 -3 -12 -12 -3 -8 8 -5 20 13 47 13 19 27 35 32 35 11 0
9 558 -3 581 -7 13 -7 19 0 19 7 0 10 431 10 1365 l0 1365 -396 0 -396 0 3
-37z m-1 -143 c0 -5 -7 -10 -16 -10 -8 0 -12 5 -9 10 3 6 10 10 16 10 5 0 9
-4 9 -10z m-10 -50 c0 -5 -4 -10 -9 -10 -6 0 -13 5 -16 10 -3 6 1 10 9 10 9 0
16 -4 16 -10z m-50 -10 c0 -5 -5 -10 -11 -10 -5 0 -7 5 -4 10 3 6 8 10 11 10
2 0 4 -4 4 -10z m-43 -7 c-4 -3 -10 -3 -14 0 -3 4 0 7 7 7 7 0 10 -3 7 -7z
m68 -23 c3 -5 -1 -10 -9 -10 -9 0 -16 5 -16 10 0 6 4 10 9 10 6 0 13 -4 16
-10z m412 -142 c-3 -7 -5 -2 -5 12 0 14 2 19 5 13 2 -7 2 -19 0 -25z m-120
-15 c-4 -3 -7 0 -7 7 0 7 3 10 7 7 3 -4 3 -10 0 -14z m-50 -10 c-4 -3 -7 0 -7
7 0 7 3 10 7 7 3 -4 3 -10 0 -14z m30 0 c-4 -3 -7 0 -7 7 0 7 3 10 7 7 3 -4 3
-10 0 -14z m8 -43 c-3 -5 -11 -10 -16 -10 -6 0 -7 5 -4 10 3 6 11 10 16 10 6
0 7 -4 4 -10z m348 -17 c-7 -3 -13 -12 -13 -21 0 -12 -3 -13 -12 -4 -9 9 -8
15 8 26 10 8 21 12 24 9 3 -3 -1 -8 -7 -10z m29 -95 c-6 -6 -15 -7 -22 -3 -8
5 -6 11 7 20 20 15 32 0 15 -17z m-132 -69 c0 -11 -4 -17 -10 -14 -5 3 -10 15
-10 26 0 11 5 17 10 14 6 -3 10 -15 10 -26z m17 14 c-4 -3 -7 0 -7 7 0 7 3 10
7 7 3 -4 3 -10 0 -14z m-90 -55 c-3 -8 -6 -5 -6 6 -1 11 2 17 5 13 3 -3 4 -12
1 -19z m-47 -59 c0 -5 -5 -9 -11 -9 -7 0 -9 -13 -5 -37 l6 -38 -15 27 c-18 32
-11 80 11 71 8 -3 14 -9 14 -14z m77 -21 c-3 -8 -6 -5 -6 6 -1 11 2 17 5 13 3
-3 4 -12 1 -19z m-310 -5 c-4 -3 -7 0 -7 7 0 7 3 10 7 7 3 -4 3 -10 0 -14z
m330 -20 c-4 -3 -7 0 -7 7 0 7 3 10 7 7 3 -4 3 -10 0 -14z m-360 -80 c-4 -3
-7 0 -7 7 0 7 3 10 7 7 3 -4 3 -10 0 -14z m33 -119 c0 -8 -5 -14 -11 -14 -6 0
-8 -9 -4 -21 5 -15 4 -19 -4 -15 -14 9 -15 46 -1 46 5 0 6 7 3 17 -4 11 -3 14
5 9 7 -4 12 -14 12 -22z m497 -11 c-4 -3 -10 -3 -14 0 -3 4 0 7 7 7 7 0 10 -3
7 -7z m-381 -85 c-3 -13 -5 -25 -5 -27 -1 -3 -6 0 -13 7 -8 8 -8 15 2 27 17
21 21 19 16 -7z m94 -12 c0 -8 -4 -17 -9 -21 -12 -7 -24 12 -16 25 9 15 25 12
25 -4z m-243 -23 c-4 -3 -10 -3 -14 0 -3 4 0 7 7 7 7 0 10 -3 7 -7z m100 -10
c-4 -3 -7 0 -7 7 0 7 3 10 7 7 3 -4 3 -10 0 -14z m167 -8 c3 -8 1 -15 -4 -15
-6 0 -10 7 -10 15 0 8 2 15 4 15 2 0 6 -7 10 -15z m-277 -12 c-4 -3 -7 0 -7 7
0 7 3 10 7 7 3 -4 3 -10 0 -14z m438 -14 c-5 -15 -4 -19 4 -15 15 10 26 -23
13 -36 -8 -8 -14 -3 -22 17 -6 16 -9 34 -6 42 9 22 18 15 11 -8z m-178 -23
c-4 -9 -11 -16 -17 -16 -11 0 -14 33 -3 43 11 11 26 -10 20 -27z m90 -3 c-4
-3 -10 -3 -14 0 -3 4 0 7 7 7 7 0 10 -3 7 -7z m194 -20 c-8 -15 -10 -15 -11
-2 0 17 10 32 18 25 2 -3 -1 -13 -7 -23z m-2 -42 c7 -5 10 -14 6 -20 -5 -9
-10 -9 -21 0 -26 22 -14 38 15 20z m-109 -61 c0 -5 -2 -10 -4 -10 -3 0 -8 5
-11 10 -3 6 -1 10 4 10 6 0 11 -4 11 -10z m-433 -17 c-4 -3 -7 0 -7 7 0 7 3
10 7 7 3 -4 3 -10 0 -14z m15 -53 c6 0 9 -2 6 -5 -12 -12 -37 7 -30 23 6 16 7
15 10 0 2 -10 8 -18 14 -18z m-39 -30 c3 -11 1 -20 -4 -20 -5 0 -9 9 -9 20 0
11 2 20 4 20 2 0 6 -9 9 -20z m67 -20 c0 -11 -2 -20 -4 -20 -2 0 -6 9 -9 20
-3 11 -1 20 4 20 5 0 9 -9 9 -20z m117 -17 c-4 -3 -7 0 -7 7 0 7 3 10 7 7 3
-4 3 -10 0 -14z m-21 -69 c-9 -24 -22 -16 -20 14 3 39 3 39 15 19 6 -10 8 -25
5 -33z m-86 11 c0 -8 -4 -15 -10 -15 -5 0 -10 7 -10 15 0 8 5 15 10 15 6 0 10
-7 10 -15z m137 -12 c-4 -3 -7 0 -7 7 0 7 3 10 7 7 3 -4 3 -10 0 -14z m-610
-10 c-4 -3 -10 -3 -14 0 -3 4 0 7 7 7 7 0 10 -3 7 -7z m723 -15 c0 -19 -2 -20
-10 -8 -13 19 -13 30 0 30 6 0 10 -10 10 -22z m51 -22 c-12 -29 -23 -35 -19
-8 3 17 20 42 26 37 1 -1 -2 -14 -7 -29z m-261 -50 c0 -8 -4 -18 -10 -21 -5
-3 -10 3 -10 14 0 12 5 21 10 21 6 0 10 -6 10 -14z m396 -55 c18 15 27 7 18
-15 -3 -9 -14 -16 -23 -16 -9 0 -24 -14 -33 -30 -19 -33 -33 -38 -41 -16 -4
10 -1 13 8 10 7 -3 16 3 20 15 3 12 11 21 16 21 5 0 9 10 10 23 0 12 3 16 6 9
4 -10 8 -10 19 -1z m-154 -38 c-4 -32 -6 -35 -17 -19 -15 19 -9 56 9 56 8 0
10 -13 8 -37z m47 -15 c1 -24 -16 -23 -29 3 -9 15 -8 24 1 36 12 13 14 13 20
-4 4 -10 8 -26 8 -35z m-292 -35 c-4 -3 -7 0 -7 7 0 7 3 10 7 7 3 -4 3 -10 0
-14z m273 -40 c0 -27 -18 -39 -33 -23 -9 10 -9 11 0 6 6 -3 14 -2 18 4 3 6 -1
13 -9 16 -12 5 -13 9 -3 24 13 22 27 9 27 -27z m-355 7 c3 -5 1 -10 -4 -10 -6
0 -11 5 -11 10 0 6 2 10 4 10 3 0 8 -4 11 -10z m372 -17 c-4 -3 -7 0 -7 7 0 7
3 10 7 7 3 -4 3 -10 0 -14z m-317 -11 c0 -4 -5 -13 -12 -20 -9 -9 -9 -12 1
-12 10 0 10 -4 3 -12 -5 -7 -12 -24 -15 -38 -2 -14 -4 -2 -4 25 0 28 2 53 4
58 6 9 23 9 23 -1z m107 -44 c-3 -8 -6 -5 -6 6 -1 11 2 17 5 13 3 -3 4 -12 1
-19z m130 -15 c-4 -3 -10 -3 -14 0 -3 4 0 7 7 7 7 0 10 -3 7 -7z m180 0 c-4
-3 -10 -3 -14 0 -3 4 0 7 7 7 7 0 10 -3 7 -7z m-461 -19 c-3 -9 -6 -27 -6 -41
0 -30 -9 -26 -15 6 -5 26 3 51 17 51 6 0 7 -7 4 -16z m71 -1 c-4 -3 -7 0 -7 7
0 7 3 10 7 7 3 -4 3 -10 0 -14z m-143 -18 c3 -8 1 -15 -4 -15 -6 0 -10 7 -10
15 0 8 2 15 4 15 2 0 6 -7 10 -15z m516 -5 c0 -5 -2 -10 -4 -10 -3 0 -8 5 -11
10 -3 6 -1 10 4 10 6 0 11 -4 11 -10z m-133 -32 c-3 -7 -5 -2 -5 12 0 14 2 19
5 13 2 -7 2 -19 0 -25z m-137 12 c0 -5 -5 -10 -11 -10 -5 0 -7 5 -4 10 3 6 8
10 11 10 2 0 4 -4 4 -10z m-73 -17 c-4 -3 -7 0 -7 7 0 7 3 10 7 7 3 -4 3 -10
0 -14z m-90 -10 c-4 -3 -7 0 -7 7 0 7 3 10 7 7 3 -4 3 -10 0 -14z m-12 -33 c3
-5 4 -10 1 -10 -3 0 -8 5 -11 10 -3 6 -4 10 -1 10 3 0 8 -4 11 -10z m-68 -17
c-4 -3 -7 0 -7 7 0 7 3 10 7 7 3 -4 3 -10 0 -14z m67 -18 c3 -8 1 -15 -4 -15
-6 0 -10 7 -10 15 0 8 2 15 4 15 2 0 6 -7 10 -15z m35 -77 c1 -5 -7 -8 -16 -7
-10 0 -13 3 -7 5 7 3 10 15 8 27 -4 21 -4 21 5 2 5 -11 10 -23 10 -27z m241
-11 c0 -20 -25 1 -28 24 -2 23 -2 23 13 5 8 -11 15 -24 15 -29z m-67 -25 c-3
-9 -10 -23 -16 -29 -12 -16 -47 -17 -47 -2 0 5 5 7 10 4 6 -3 10 4 10 16 0 18
2 20 16 9 8 -8 14 -9 13 -4 -4 20 2 35 11 29 5 -3 6 -13 3 -23z m294 21 c-4
-3 -10 -3 -14 0 -3 4 0 7 7 7 7 0 10 -3 7 -7z m22 -25 c0 -27 -2 -29 -8 -13
-5 11 -6 26 -4 33 8 21 13 13 12 -20z m-482 15 c-4 -3 -10 -3 -14 0 -3 4 0 7
7 7 7 0 10 -3 7 -7z m33 -8 c0 -8 -2 -15 -4 -15 -2 0 -6 7 -10 15 -3 8 -1 15
4 15 6 0 10 -7 10 -15z m179 -65 c1 -12 -2 -11 -15 2 -11 11 -14 23 -9 35 7
17 8 17 15 -2 5 -11 9 -27 9 -35z m-304 -9 c-5 -30 -10 -38 -21 -34 -11 4 -12
9 -5 16 6 6 11 21 11 32 0 22 10 39 18 31 2 -3 1 -23 -3 -45z m87 13 c-9 -16
-10 -14 -9 8 1 15 6 23 11 18 4 -4 4 -16 -2 -26z m298 11 c0 -8 -2 -15 -4 -15
-2 0 -6 7 -10 15 -3 8 -1 15 4 15 6 0 10 -7 10 -15z m-279 -22 c-12 -20 -14
-14 -5 12 4 9 9 14 11 11 3 -2 0 -13 -6 -23z m334 6 c-3 -5 1 -6 9 -3 15 6 34
-21 23 -32 -11 -11 -47 17 -47 37 0 11 5 17 10 14 6 -4 8 -11 5 -16z m-215 -1
c0 -9 4 -8 10 2 13 21 12 6 -2 -25 -15 -33 -25 -32 -26 5 0 17 4 30 9 30 5 0
9 -6 9 -12z m120 -3 c0 -8 -4 -15 -10 -15 -5 0 -7 7 -4 15 4 8 8 15 10 15 2 0
4 -7 4 -15z m244 -20 c3 -9 -1 -18 -10 -22 -19 -7 -28 2 -21 22 8 19 23 19 31
0z m-506 -27 c-3 -35 -28 -52 -28 -20 0 28 10 52 22 52 5 0 8 -14 6 -32z m179
15 c-4 -3 -7 0 -7 7 0 7 3 10 7 7 3 -4 3 -10 0 -14z m110 0 c-4 -3 -7 0 -7 7
0 7 3 10 7 7 3 -4 3 -10 0 -14z m-260 -30 c-4 -3 -7 0 -7 7 0 7 3 10 7 7 3 -4
3 -10 0 -14z m125 -5 c-7 -7 -12 -8 -12 -2 0 6 3 14 7 17 3 4 9 5 12 2 2 -3
-1 -11 -7 -17z m345 -15 c-4 -3 -7 0 -7 7 0 7 3 10 7 7 3 -4 3 -10 0 -14z
m-337 -21 c0 -11 -7 -18 -20 -18 -25 0 -25 5 -2 22 22 17 22 17 22 -4z m64 0
c-6 -4 -16 -23 -23 -43 -7 -22 -22 -41 -36 -47 -28 -13 -33 -5 -8 13 9 7 17
21 18 31 4 34 15 50 38 51 12 1 17 -1 11 -5z m260 -44 c-5 -8 -10 -5 -14 8
-10 25 0 41 12 20 5 -9 6 -21 2 -28z m-429 22 c3 -5 1 -10 -4 -10 -6 0 -11 5
-11 10 0 6 2 10 4 10 3 0 8 -4 11 -10z m-85 -15 c0 -8 -7 -15 -15 -15 -8 0
-15 7 -15 15 0 8 7 15 15 15 8 0 15 -7 15 -15z m50 5 c0 -5 -4 -10 -10 -10 -5
0 -10 5 -10 10 0 6 5 10 10 10 6 0 10 -4 10 -10z m80 -4 c0 -17 -14 -29 -23
-20 -8 8 3 34 14 34 5 0 9 -6 9 -14z m36 -28 l-16 -22 0 22 c0 13 4 20 10 17
6 -3 10 -1 10 6 0 7 3 10 6 6 3 -3 -1 -16 -10 -29z m-249 5 c-4 -3 -7 0 -7 7
0 7 3 10 7 7 3 -4 3 -10 0 -14z m150 -3 c-1 -22 -17 -28 -17 -7 0 12 9 27 16
27 2 0 2 -9 1 -20z m-180 -27 c-4 -3 -7 0 -7 7 0 7 3 10 7 7 3 -4 3 -10 0 -14z
m695 -1 c9 -9 2 -12 -30 -10 -27 1 -42 6 -42 15 0 16 55 12 72 -5z m-630 -19
c-3 -16 -7 -22 -10 -15 -4 13 4 42 11 42 2 0 2 -12 -1 -27z m-35 0 c-4 -3 -7
0 -7 7 0 7 3 10 7 7 3 -4 3 -10 0 -14z m171 9 c16 -10 5 -42 -14 -42 -8 0 -14
4 -14 9 0 5 -3 16 -6 25 -7 17 12 21 34 8z m-97 -21 c-9 -15 -7 -18 7 -17 11
0 18 -7 20 -22 2 -12 8 -20 13 -17 5 4 9 1 9 -5 0 -17 -26 -23 -48 -11 -16 8
-26 6 -47 -11 l-28 -21 12 22 c7 12 19 25 27 28 8 3 14 18 14 33 0 24 7 33 28
39 1 1 -2 -7 -7 -18z m589 -11 c0 -5 -2 -10 -4 -10 -3 0 -8 5 -11 10 -3 6 -1
10 4 10 6 0 11 -4 11 -10z m-390 -13 c0 -14 -20 -37 -32 -37 -13 0 -9 38 5 43
21 9 27 7 27 -6z m377 -14 c-4 -3 -10 -3 -14 0 -3 4 0 7 7 7 7 0 10 -3 7 -7z
m-331 -29 c-3 -9 -6 -22 -6 -30 0 -8 -4 -14 -10 -14 -5 0 -10 14 -10 30 0 21
5 30 16 30 11 0 14 -5 10 -16z m388 -10 c4 -15 2 -32 -5 -40 -14 -17 -52 -19
-47 -2 3 7 -1 19 -9 26 -13 14 -9 32 7 32 5 0 17 -12 25 -27 l16 -28 -5 33
c-6 38 9 43 18 6z m-554 0 c0 -8 -4 -12 -10 -9 -5 3 -10 10 -10 16 0 5 5 9 10
9 6 0 10 -7 10 -16z m117 -11 c-4 -3 -7 0 -7 7 0 7 3 10 7 7 3 -4 3 -10 0 -14z
m141 -11 c-5 -27 -28 -26 -28 2 0 19 4 24 15 19 9 -3 15 -12 13 -21z m-421
-19 c-4 -3 -7 0 -7 7 0 7 3 10 7 7 3 -4 3 -10 0 -14z m52 -46 c-5 -21 -14 -35
-19 -32 -4 3 -11 -1 -13 -7 -3 -7 -6 -3 -6 9 -1 16 3 21 14 17 11 -5 15 1 15
18 0 23 9 42 16 35 2 -2 -1 -20 -7 -40z m60 31 c0 -7 -5 -22 -10 -33 -9 -19
-9 -18 -5 3 2 12 0 22 -5 22 -5 0 -9 5 -9 10 0 6 7 10 15 10 8 0 15 -6 14 -12z
m188 -5 c-4 -3 -7 0 -7 7 0 7 3 10 7 7 3 -4 3 -10 0 -14z m118 -19 c13 -5 14
-8 3 -15 -19 -13 -28 -11 -28 6 0 17 2 18 25 9z m21 -49 c-1 -33 -16 -33 -16
0 0 14 4 25 9 25 5 0 8 -11 7 -25z m-114 -35 l-21 -23 2 24 c1 27 18 42 31 29
5 -5 -1 -18 -12 -30z m338 36 c0 -3 -5 -8 -12 -12 -7 -4 -8 -3 -4 4 7 12 16
16 16 8z m-137 -32 c7 1 9 1 4 -1 -4 -3 -4 -10 0 -16 4 -7 -1 -6 -10 2 -9 7
-16 21 -16 30 1 14 2 14 6 -1 2 -9 10 -16 16 -14z m-492 2 c12 7 11 2 -5 -36
-10 -24 -15 -28 -19 -16 -4 9 -2 16 4 16 5 0 7 12 4 28 -3 15 -2 21 1 14 3 -6
10 -10 15 -6z m75 -23 c-11 -11 -17 4 -9 23 7 18 8 18 11 1 2 -10 1 -21 -2
-24z m64 23 c0 -3 -4 -8 -10 -11 -5 -3 -10 -1 -10 4 0 6 5 11 10 11 6 0 10 -2
10 -4z m37 -13 c-4 -3 -7 0 -7 7 0 7 3 10 7 7 3 -4 3 -10 0 -14z m443 7 c0 -5
-4 -10 -10 -10 -5 0 -10 5 -10 10 0 6 5 10 10 10 6 0 10 -4 10 -10z m-583 -27
c-4 -3 -7 0 -7 7 0 7 3 10 7 7 3 -4 3 -10 0 -14z m630 -37 c-15 -39 -44 -7
-31 33 4 12 7 12 21 -1 9 -9 13 -24 10 -32z m-204 14 c-6 -24 -19 -34 -27 -21
-9 14 4 41 19 41 8 0 11 -8 8 -20z m-526 -7 c-4 -3 -7 0 -7 7 0 7 3 10 7 7 3
-4 3 -10 0 -14z m480 -10 c-4 -3 -7 0 -7 7 0 7 3 10 7 7 3 -4 3 -10 0 -14z
m289 -69 c-3 -8 -11 -14 -19 -14 -19 0 -19 42 1 63 17 19 17 19 20 -8 2 -15 1
-33 -2 -41z m-729 39 c-4 -3 -7 0 -7 7 0 7 3 10 7 7 3 -4 3 -10 0 -14z m-20
-10 c-4 -3 -7 0 -7 7 0 7 3 10 7 7 3 -4 3 -10 0 -14z m70 -5 c-3 -8 -6 -5 -6
6 -1 11 2 17 5 13 3 -3 4 -12 1 -19z m183 18 c0 -2 -7 -9 -15 -16 -12 -10 -15
-10 -15 4 0 9 7 16 15 16 8 0 15 -2 15 -4z m-247 -54 c-6 -23 -23 -21 -23 4 0
8 5 12 10 9 6 -3 10 -1 10 6 0 7 2 10 5 8 2 -3 2 -15 -2 -27z m57 4 c0 -3 -4
-8 -10 -11 -5 -3 -10 -1 -10 4 0 6 5 11 10 11 6 0 10 -2 10 -4z m150 -36 c0
-4 -6 -10 -14 -13 -10 -4 -12 0 -9 14 5 18 23 18 23 -1z m297 -17 c-4 -3 -7 0
-7 7 0 7 3 10 7 7 3 -4 3 -10 0 -14z m-365 -25 c-7 -7 -12 -8 -12 -2 0 6 3 14
7 17 3 4 9 5 12 2 2 -3 -1 -11 -7 -17z m475 5 c-4 -3 -10 -3 -14 0 -3 4 0 7 7
7 7 0 10 -3 7 -7z m-165 -35 c-7 -7 -10 -5 -7 8 5 29 6 30 12 16 3 -8 1 -18
-5 -24z m128 12 c0 -5 -5 -10 -11 -10 -5 0 -7 5 -4 10 3 6 8 10 11 10 2 0 4
-4 4 -10z m-245 -50 c3 -5 -1 -10 -9 -10 -9 0 -16 5 -16 10 0 6 4 10 9 10 6 0
13 -4 16 -10z m75 3 c0 -5 -4 -15 -10 -23 -11 -18 -25 -7 -17 15 6 15 27 21
27 8z m103 -8 c4 -8 1 -17 -5 -21 -7 -4 -6 -9 2 -14 9 -6 10 -12 1 -26 -10
-18 -10 -18 -11 -1 0 10 -4 16 -9 13 -12 -8 -21 18 -14 43 6 24 28 28 36 6z
m-157 -43 c-11 -10 -15 4 -8 28 l7 25 3 -23 c2 -13 1 -26 -2 -30z m-251 -2 c3
-5 1 -10 -4 -10 -6 0 -11 5 -11 10 0 6 2 10 4 10 3 0 8 -4 11 -10z m368 -12
c6 -22 5 -22 -8 -4 -7 10 -18 15 -24 11 -6 -3 -11 -1 -11 4 0 21 38 11 43 -11z
m83 -16 c-3 -3 -1 -11 6 -19 6 -7 8 -16 4 -20 -9 -9 -13 -2 -22 31 -5 22 -4
27 5 21 7 -4 10 -10 7 -13z m-543 -35 c3 -22 2 -35 -4 -32 -5 4 -9 22 -9 42 0
45 5 40 13 -10z m214 13 c1 -11 -3 -20 -8 -20 -7 0 -8 -12 -4 -31 5 -22 4 -29
-4 -24 -20 12 -9 85 14 95 1 0 1 -9 2 -20z m180 3 c-4 -3 -7 0 -7 7 0 7 3 10
7 7 3 -4 3 -10 0 -14z m-117 -13 c0 -5 -7 -7 -15 -4 -8 4 -12 10 -9 15 6 11
24 2 24 -11z m0 -42 c0 -18 -2 -20 -9 -8 -6 8 -7 18 -5 22 9 14 14 9 14 -14z
m50 -12 c-14 -14 -24 0 -16 21 6 15 8 15 16 3 6 -9 5 -19 0 -24z m190 4 c0 -5
-4 -10 -10 -10 -5 0 -10 5 -10 10 0 6 5 10 10 10 6 0 10 -4 10 -10z m-520 -66
c0 -8 5 -14 11 -14 6 0 8 9 4 21 -5 16 -3 20 11 17 14 -2 18 -14 19 -56 1 -37
-2 -55 -12 -59 -7 -3 -13 -9 -13 -15 0 -5 4 -7 9 -3 11 6 26 -33 17 -42 -3 -4
-6 -1 -6 5 0 7 -5 12 -11 12 -6 0 -8 -8 -5 -17 3 -10 2 -24 -3 -32 -10 -15
-16 7 -26 99 -3 30 -9 68 -12 84 -3 19 -2 26 6 22 6 -4 11 -14 11 -22z m430 1
c0 -8 -4 -17 -10 -20 -6 -3 -9 4 -8 19 2 25 18 26 18 1z m62 -7 c6 -16 -1 -38
-12 -38 -4 0 -7 11 -6 25 1 27 11 33 18 13z m-435 -25 c-4 -3 -7 0 -7 7 0 7 3
10 7 7 3 -4 3 -10 0 -14z m208 -7 c-2 -14 -7 -31 -11 -38 -5 -7 -7 -22 -6 -33
1 -11 -7 -31 -19 -45 -11 -14 -18 -19 -14 -12 3 6 0 12 -7 12 -9 1 -7 4 3 10
10 6 20 30 24 56 3 26 9 53 12 60 9 23 20 16 18 -10z m409 -11 c3 -8 13 -15
23 -15 14 0 18 -8 17 -34 -2 -61 -61 -89 -61 -28 0 15 -3 42 -8 60 -6 25 -4
32 8 32 8 0 17 -7 21 -15z m-237 -12 c-4 -3 -7 0 -7 7 0 7 3 10 7 7 3 -4 3
-10 0 -14z m202 -47 c1 -18 0 -18 -17 -3 -23 21 -32 21 -32 3 0 -16 -18 -31
-27 -22 -3 3 10 20 28 38 35 35 47 31 48 -16z m-445 18 c4 -10 1 -14 -6 -12
-15 5 -23 28 -10 28 5 0 13 -7 16 -16z m363 -6 c-3 -8 -6 -5 -6 6 -1 11 2 17
5 13 3 -3 4 -12 1 -19z m-480 -15 c-4 -3 -10 -3 -14 0 -3 4 0 7 7 7 7 0 10 -3
7 -7z m113 -24 c0 -11 -4 -18 -10 -14 -5 3 -7 12 -3 20 7 21 13 19 13 -6z
m287 14 c-4 -3 -10 -3 -14 0 -3 4 0 7 7 7 7 0 10 -3 7 -7z m40 -10 c-4 -3 -7
0 -7 7 0 7 3 10 7 7 3 -4 3 -10 0 -14z m-223 -35 c4 -24 3 -38 -4 -38 -5 0
-10 19 -10 42 0 49 5 47 14 -4z m309 12 c-3 -11 -7 -20 -9 -20 -2 0 -4 9 -4
20 0 11 4 20 9 20 5 0 7 -9 4 -20z m-436 -47 c-4 -3 -7 0 -7 7 0 7 3 10 7 7 3
-4 3 -10 0 -14z m181 -28 c-3 -3 -9 2 -12 12 -6 14 -5 15 5 6 7 -7 10 -15 7
-18z m29 18 c-4 -3 -10 -3 -14 0 -3 4 0 7 7 7 7 0 10 -3 7 -7z m-347 -63 c4
-8 4 -24 -1 -35 -8 -20 -8 -20 -9 0 0 18 -2 18 -10 3 -11 -17 -3 -75 11 -84
12 -7 12 -24 0 -24 -16 0 -29 83 -24 145 5 52 7 57 15 35 6 -14 13 -32 18 -40z
m377 43 c-4 -3 -7 0 -7 7 0 7 3 10 7 7 3 -4 3 -10 0 -14z m-260 -25 c-3 -7 -5
-2 -5 12 0 14 2 19 5 13 2 -7 2 -19 0 -25z m73 -28 c0 -5 -5 -10 -11 -10 -5 0
-7 5 -4 10 3 6 8 10 11 10 2 0 4 -4 4 -10z m50 6 c0 -3 -4 -8 -10 -11 -5 -3
-10 -1 -10 4 0 6 5 11 10 11 6 0 10 -2 10 -4z m242 -18 c-7 -7 -12 -8 -12 -2
0 6 3 14 7 17 3 4 9 5 12 2 2 -3 -1 -11 -7 -17z m-88 -32 c-1 -9 2 -16 7 -16
5 0 9 -4 9 -9 0 -6 -9 -9 -19 -8 -11 0 -17 5 -14 10 3 5 0 13 -7 17 -15 9 -3
33 13 27 7 -2 11 -12 11 -21z m-34 -49 c0 -5 -4 -5 -10 -2 -5 3 -10 14 -10 23
0 15 2 15 10 2 5 -8 10 -19 10 -23z m104 18 c3 -8 1 -15 -4 -15 -6 0 -10 7
-10 15 0 8 2 15 4 15 2 0 6 -7 10 -15z m-161 -28 c-3 -5 -10 -4 -15 1 -6 6 -7
16 -3 22 6 9 9 9 16 -1 4 -7 5 -17 2 -22z m-197 -20 c18 1 18 1 2 -11 -10 -7
-14 -16 -10 -20 4 -4 -1 -12 -11 -17 -9 -6 -15 -15 -11 -20 3 -6 -2 -19 -11
-29 -9 -10 -18 -30 -19 -43 0 -14 -5 -23 -9 -20 -5 3 -6 15 -3 27 3 11 1 38
-3 59 -5 20 -6 37 -1 37 4 0 12 10 19 23 11 21 11 20 7 -9 -3 -16 -6 -36 -8
-43 -2 -8 3 -16 10 -18 7 -3 10 1 6 10 -3 8 1 21 9 28 9 9 11 22 6 34 -4 11
-7 29 -7 40 0 16 2 15 7 -5 5 -17 14 -24 27 -23z m611 16 c-4 -3 -10 -3 -14 0
-3 4 0 7 7 7 7 0 10 -3 7 -7z m-352 -23 c3 -5 4 -10 1 -10 -3 0 -8 5 -11 10
-3 6 -4 10 -1 10 3 0 8 -4 11 -10z m141 -19 c11 9 14 8 14 -9 0 -11 3 -27 6
-35 4 -11 -1 -13 -20 -10 -18 4 -27 14 -31 34 -4 16 -12 29 -18 30 -7 0 -3 4
8 8 15 6 21 4 23 -11 3 -15 6 -17 18 -7z m-85 -25 c14 -15 16 -23 7 -33 -9
-11 -14 -7 -24 24 -13 37 -18 73 -7 43 3 -8 14 -23 24 -34z m163 -9 c15 -21
17 -30 8 -39 -9 -9 -12 -9 -12 0 0 7 -6 12 -14 12 -8 0 -16 13 -18 30 -5 36 7
35 36 -3z m-574 -38 c0 -27 -4 -49 -9 -49 -4 0 -8 24 -7 54 0 30 4 52 8 50 4
-3 8 -27 8 -55z m454 45 c3 -8 2 -12 -4 -9 -6 3 -10 10 -10 16 0 14 7 11 14
-7z m-81 -21 c5 -26 4 -26 -9 -8 -16 22 -18 35 -5 35 5 0 11 -12 14 -27z
m-163 7 c-20 -13 -43 -13 -35 0 3 6 16 10 28 10 18 0 19 -2 7 -10z m270 -76
c0 -21 -4 -33 -10 -29 -17 10 -11 65 7 65 2 0 3 -16 3 -36z m-400 1 c0 -8 -4
-17 -10 -20 -6 -4 -10 5 -10 20 0 15 4 24 10 20 6 -3 10 -12 10 -20z m120 10
c0 -9 -7 -18 -16 -22 -18 -7 -39 11 -30 26 11 17 46 13 46 -4z m335 5 c3 -5
-1 -10 -9 -10 -9 0 -16 5 -16 10 0 6 4 10 9 10 6 0 13 -4 16 -10z m-420 -32
c0 -18 4 -44 9 -58 8 -22 7 -24 -8 -11 -9 8 -15 19 -13 25 2 6 1 23 -4 38 -7
25 -3 38 10 38 3 0 6 -15 6 -32z m147 -10 c-8 -8 -9 -4 -5 13 4 13 8 18 11 10
2 -7 -1 -18 -6 -23z m-309 2 c-3 -11 -10 -23 -16 -27 -7 -4 -8 0 -4 11 4 10 7
22 7 27 0 5 4 9 9 9 5 0 7 -9 4 -20z m34 -7 c-4 -3 -7 0 -7 7 0 7 3 10 7 7 3
-4 3 -10 0 -14z m320 0 c-4 -3 -7 0 -7 7 0 7 3 10 7 7 3 -4 3 -10 0 -14z
m-117 -2 c0 -5 -7 -11 -15 -15 -15 -5 -20 5 -8 17 9 10 23 9 23 -2z m-132 -55
c5 -13 7 -28 4 -34 -4 -5 -14 7 -24 28 -18 43 1 48 20 6z m122 9 c0 -8 -4 -15
-10 -15 -5 0 -10 7 -10 15 0 8 5 15 10 15 6 0 10 -7 10 -15z m77 -22 c-4 -3
-7 0 -7 7 0 7 3 10 7 7 3 -4 3 -10 0 -14z m-237 -25 c0 -5 -4 -8 -10 -8 -5 0
-10 10 -10 23 0 18 2 19 10 7 5 -8 10 -18 10 -22z m77 5 c-4 -3 -7 0 -7 7 0 7
3 10 7 7 3 -4 3 -10 0 -14z m500 0 c-4 -3 -7 0 -7 7 0 7 3 10 7 7 3 -4 3 -10
0 -14z m-630 -30 c-4 -3 -7 0 -7 7 0 7 3 10 7 7 3 -4 3 -10 0 -14z m367 -26
c-3 -9 -11 -17 -16 -17 -6 0 -8 7 -4 15 3 8 0 15 -7 15 -8 0 -7 4 3 10 19 12
33 -1 24 -23z m-267 -44 c-3 -10 -5 -4 -5 12 0 17 2 24 5 18 2 -7 2 -21 0 -30z
m508 -13 c3 -5 4 -10 1 -10 -3 0 -8 5 -11 10 -3 6 -4 10 -1 10 3 0 8 -4 11
-10z m-358 -37 c-4 -3 -7 0 -7 7 0 7 3 10 7 7 3 -4 3 -10 0 -14z"/>
<path d="M3824 4248 c-4 -7 -3 -8 4 -4 7 4 12 9 12 12 0 8 -9 4 -16 -8z"/>
<path d="M3750 3513 c0 -19 11 -43 21 -43 13 0 11 14 -6 36 -8 10 -15 14 -15
7z"/>
<path d="M2706 6714 c4 -21 1 -36 -8 -45 -12 -11 -13 -17 -1 -41 12 -24 17
-26 34 -17 11 6 29 19 40 30 12 12 33 19 59 19 29 0 42 5 50 20 12 23 5 60
-12 60 -6 0 -8 -3 -5 -7 4 -3 -2 -13 -14 -21 -24 -17 -37 -9 -19 13 19 23 -27
20 -69 -6 -18 -11 -34 -19 -36 -17 -1 2 -7 12 -13 23 -10 17 -11 16 -6 -11z"/>
<path d="M2031 6714 c0 -11 3 -14 6 -6 3 7 2 16 -1 19 -3 4 -6 -2 -5 -13z"/>
<path d="M2040 6660 c0 -7 3 -10 7 -7 3 4 3 10 0 14 -4 3 -7 0 -7 -7z"/>
<path d="M2525 6640 c-3 -5 -1 -10 4 -10 6 0 11 5 11 10 0 6 -2 10 -4 10 -3 0
-8 -4 -11 -10z"/>
<path d="M2430 6595 c-14 -8 -19 -14 -10 -14 8 0 24 6 34 14 25 19 9 19 -24 0z"/>
<path d="M481 6533 c7 -12 15 -20 18 -17 3 2 -3 12 -13 22 -17 16 -18 16 -5
-5z"/>
<path d="M3350 6525 c0 -16 41 -30 62 -22 7 3 3 6 -10 6 -12 1 -25 8 -28 16
-8 19 -24 19 -24 0z"/>
<path d="M3495 6530 c-3 -5 -1 -10 4 -10 6 0 11 5 11 10 0 6 -2 10 -4 10 -3 0
-8 -4 -11 -10z"/>
<path d="M2820 6512 c6 -13 14 -21 18 -18 3 4 -2 14 -12 24 -18 16 -18 16 -6
-6z"/>
<path d="M1475 6490 c-17 -7 -14 -9 13 -9 20 -1 31 3 27 9 -7 12 -13 12 -40 0z"/>
<path d="M1553 6463 c4 -3 10 -3 14 0 3 4 0 7 -7 7 -7 0 -10 -3 -7 -7z"/>
<path d="M3486 6414 c-9 -22 3 -32 14 -14 12 19 12 30 1 30 -5 0 -12 -7 -15
-16z"/>
<path d="M1048 6113 c-10 -2 -18 -9 -18 -15 0 -6 -12 -22 -26 -35 -21 -19 -34
-23 -58 -19 -76 14 -242 5 -231 -13 2 -4 -13 -8 -35 -9 -46 -2 -132 -24 -180
-46 l-35 -16 32 6 c19 3 43 -1 60 -10 31 -16 102 -32 201 -46 34 -5 70 -13 79
-18 9 -5 24 -7 34 -5 23 6 25 -10 4 -27 -8 -7 -15 -25 -15 -40 0 -15 -7 -33
-15 -40 -8 -7 -15 -18 -15 -25 0 -7 -7 -18 -15 -25 -8 -7 -12 -16 -9 -22 3 -5
-1 -19 -9 -32 -12 -18 -13 -30 -4 -64 10 -37 27 -58 27 -33 0 4 34 14 76 20
49 8 74 17 71 24 -2 7 0 26 5 42 25 83 40 145 48 197 6 44 15 63 41 87 17 17
36 31 40 31 5 0 9 9 9 20 0 11 -7 20 -15 20 -10 0 -15 10 -15 30 0 17 -5 30
-11 30 -6 0 -9 9 -6 20 3 11 4 19 4 19 -1 -1 -10 -3 -19 -6z m-118 -193 c0 -5
-7 -10 -15 -10 -8 0 -15 5 -15 10 0 6 7 10 15 10 8 0 15 -4 15 -10z m37 -37
c-4 -3 -10 -3 -14 0 -3 4 0 7 7 7 7 0 10 -3 7 -7z"/>
<path d="M2260 6010 c0 -7 3 -10 7 -7 3 4 3 10 0 14 -4 3 -7 0 -7 -7z"/>
<path d="M2545 5870 c3 -5 8 -10 11 -10 2 0 4 5 4 10 0 6 -5 10 -11 10 -5 0
-7 -4 -4 -10z"/>
<path d="M824 5848 c-4 -7 -3 -8 4 -4 12 7 16 16 8 16 -3 0 -8 -5 -12 -12z"/>
<path d="M2350 5734 c0 -8 5 -12 10 -9 6 4 8 11 5 16 -9 14 -15 11 -15 -7z"/>
<path d="M3503 5653 c-17 -6 -17 -33 0 -33 8 0 22 9 32 20 17 19 17 20 -1 19
-10 0 -25 -3 -31 -6z"/>
<path d="M2356 5524 c-4 -10 -1 -14 6 -12 15 5 23 28 10 28 -5 0 -13 -7 -16
-16z"/>
<path d="M3217 5501 c-3 -14 -1 -18 9 -14 8 3 14 11 14 19 0 21 -17 17 -23 -5z"/>
<path d="M436 5471 c-3 -5 1 -11 9 -15 9 -3 15 0 15 9 0 16 -16 20 -24 6z"/>
<path d="M403 5453 c4 -3 10 -3 14 0 3 4 0 7 -7 7 -7 0 -10 -3 -7 -7z"/>
<path d="M353 5423 c4 -3 10 -3 14 0 3 4 0 7 -7 7 -7 0 -10 -3 -7 -7z"/>
<path d="M3137 5417 c-11 -29 -9 -53 4 -40 6 6 9 21 7 34 -3 21 -4 22 -11 6z"/>
<path d="M190 5410 c0 -5 7 -10 16 -10 8 0 12 5 9 10 -3 6 -10 10 -16 10 -5 0
-9 -4 -9 -10z"/>
<path d="M3370 5374 l-25 -14 30 6 c35 8 39 10 28 17 -5 3 -19 -1 -33 -9z"/>
<path d="M1480 5341 c0 -6 4 -13 10 -16 6 -3 7 1 4 9 -7 18 -14 21 -14 7z"/>
<path d="M3073 5343 c4 -3 10 -3 14 0 3 4 0 7 -7 7 -7 0 -10 -3 -7 -7z"/>
<path d="M3020 5319 c-19 -11 -31 -19 -27 -19 4 0 3 -9 -3 -21 -10 -19 -10
-20 9 -10 11 6 27 8 37 4 12 -4 15 -3 10 5 -4 7 -1 15 8 18 17 6 22 29 9 37
-5 3 -24 -4 -43 -14z"/>
<path d="M1550 5156 c0 -2 8 -10 18 -17 15 -13 16 -12 3 4 -13 16 -21 21 -21
13z"/>
<path d="M1576 5074 c-11 -28 -6 -39 9 -20 8 11 15 23 15 28 0 14 -18 9 -24
-8z"/>
<path d="M3181 5081 c-10 -6 -10 -10 -1 -16 13 -8 24 -1 19 14 -3 6 -10 7 -18
2z"/>
<path d="M1351 4982 c-1 -18 -10 -90 -20 -160 -11 -70 -18 -156 -16 -192 2
-36 3 -122 4 -192 1 -71 5 -128 10 -128 5 0 9 102 10 228 0 128 7 270 14 327
8 55 10 111 6 125 -7 23 -7 23 -8 -8z"/>
<path d="M3451 4724 c-54 -30 -64 -39 -28 -25 38 15 87 41 87 46 0 9 -15 4
-59 -21z"/>
<path d="M3461 4674 c-19 -8 -31 -17 -28 -21 7 -7 86 15 102 29 15 14 -38 8
-74 -8z"/>
<path d="M1220 4644 c-18 -21 -29 -42 -26 -51 4 -10 2 -13 -8 -10 -8 3 -16 -2
-19 -14 -3 -12 -11 -17 -21 -13 -12 5 -13 10 -5 25 8 16 6 19 -9 19 -14 0 -22
-11 -30 -42 -6 -24 -20 -81 -31 -128 -12 -47 -22 -109 -23 -137 0 -29 -5 -53
-10 -53 -5 0 -6 -4 -3 -10 3 -5 14 -10 25 -10 10 0 20 -7 24 -15 9 -24 23 -18
74 30 26 25 50 45 55 45 4 0 7 9 7 20 0 11 -4 20 -10 20 -5 0 -10 5 -10 11 0
5 4 7 10 4 22 -13 50 15 50 51 0 34 -1 34 -37 31 -21 -2 -36 -6 -34 -8 2 -2
-1 -14 -8 -27 -8 -16 -20 -22 -34 -20 -29 4 -24 33 11 64 21 19 24 26 13 33
-17 11 -7 43 30 94 16 22 29 46 29 52 0 7 6 15 14 18 9 4 12 14 9 28 -5 19 -3
21 15 17 12 -4 22 -2 22 3 0 22 -41 6 -70 -27z m-100 -224 c0 -5 -4 -10 -10
-10 -5 0 -10 5 -10 10 0 6 5 10 10 10 6 0 10 -4 10 -10z"/>
<path d="M3326 4644 c19 -34 62 -69 72 -59 3 3 1 10 -6 14 -7 4 -10 14 -7 22
4 13 -11 24 -63 46 -8 4 -7 -4 4 -23z"/>
<path d="M1120 4626 c0 -9 7 -16 16 -16 9 0 14 5 12 12 -6 18 -28 21 -28 4z"/>
<path d="M3330 4570 c-20 -12 -5 -24 16 -12 9 5 12 12 7 15 -5 3 -15 2 -23 -3z"/>
<path d="M3416 4561 c-4 -7 -5 -15 -2 -18 9 -9 19 4 14 18 -4 11 -6 11 -12 0z"/>
<path d="M3381 4465 c-23 -13 -50 -49 -51 -69 0 -14 92 3 112 21 22 20 23 49
2 57 -21 8 -35 6 -63 -9z"/>
<path d="M1296 4253 c-13 -92 -36 -144 -67 -155 -16 -5 -29 -15 -29 -20 0 -7
-18 -9 -50 -5 -32 4 -50 2 -50 -5 0 -5 6 -8 14 -5 20 8 27 -40 9 -55 -8 -6
-23 -28 -33 -49 -11 -20 -33 -50 -50 -67 -29 -30 -30 -32 -28 -124 1 -57 7
-101 15 -114 18 -29 2 -69 -35 -88 -16 -8 -35 -22 -43 -32 -13 -16 -12 -16 17
-1 17 9 37 23 44 32 11 13 24 15 60 10 52 -7 63 0 74 50 10 42 33 74 60 85 14
5 26 20 29 37 4 15 29 52 57 82 27 29 50 62 50 72 0 34 -40 108 -56 102 -18
-7 -18 12 1 30 8 8 12 17 9 20 -3 3 4 8 15 12 26 8 27 33 4 42 -29 11 -32 24
-13 67 9 23 16 53 14 68 -1 15 2 30 7 34 5 3 7 10 4 15 -13 20 -23 7 -29 -38z
m-19 -170 c-4 -3 -7 0 -7 7 0 7 3 10 7 7 3 -4 3 -10 0 -14z m-87 -123 c0 -5
-5 -10 -11 -10 -5 0 -7 5 -4 10 3 6 8 10 11 10 2 0 4 -4 4 -10z m26 -45 c7
-27 -8 -80 -22 -79 -16 1 -16 34 0 34 13 0 14 5 6 26 -13 32 -13 44 0 44 5 0
12 -11 16 -25z m-96 -195 c0 -5 -4 -10 -10 -10 -5 0 -10 5 -10 10 0 6 5 10 10
10 6 0 10 -4 10 -10z m60 -8 c0 -10 -37 -32 -43 -25 -11 10 6 33 24 33 10 0
19 -3 19 -8z m-103 -49 c-4 -3 -10 -3 -14 0 -3 4 0 7 7 7 7 0 10 -3 7 -7z"/>
<path d="M914 4153 c-34 -37 -23 -40 17 -4 18 17 28 31 21 31 -7 0 -24 -12
-38 -27z"/>
<path d="M773 4143 c4 -3 10 -3 14 0 3 4 0 7 -7 7 -7 0 -10 -3 -7 -7z"/>
<path d="M1072 4120 c0 -14 2 -19 5 -12 2 6 2 18 0 25 -3 6 -5 1 -5 -13z"/>
<path d="M850 4110 c-12 -8 -11 -10 8 -10 12 0 22 5 22 10 0 13 -11 13 -30 0z"/>
<path d="M746 4091 c-10 -11 -15 -25 -11 -30 3 -6 -1 -11 -10 -11 -11 0 -15
-5 -12 -15 4 -8 2 -17 -3 -20 -6 -4 -10 2 -10 12 -1 15 -5 13 -26 -10 -21 -25
-24 -36 -20 -73 6 -46 21 -84 34 -84 11 1 65 90 89 148 12 30 29 62 38 72 15
16 15 18 0 24 -29 11 -51 6 -69 -13z m-49 -98 c-4 -3 -10 -3 -14 0 -3 4 0 7 7
7 7 0 10 -3 7 -7z m0 -30 c-4 -3 -10 -3 -14 0 -3 4 0 7 7 7 7 0 10 -3 7 -7z
m10 -50 c-4 -3 -7 0 -7 7 0 7 3 10 7 7 3 -4 3 -10 0 -14z"/>
<path d="M995 4080 c-3 -5 3 -10 15 -10 12 0 18 5 15 10 -3 6 -10 10 -15 10
-5 0 -12 -4 -15 -10z"/>
<path d="M825 3470 c-16 -7 -17 -9 -3 -9 9 -1 20 4 23 9 7 11 7 11 -20 0z"/>
<path d="M3638 2835 c6 -32 20 -32 18 0 0 14 -6 25 -12 25 -7 0 -9 -10 -6 -25z"/>
<path d="M122 2778 c5 -15 28 -23 28 -10 0 5 -7 13 -16 16 -10 4 -14 1 -12 -6z"/>
<path d="M910 2470 c0 -7 3 -10 7 -7 3 4 3 10 0 14 -4 3 -7 0 -7 -7z"/>
<path d="M286 2451 c-4 -7 -5 -15 -2 -18 9 -9 19 4 14 18 -4 11 -6 11 -12 0z"/>
<path d="M340 2426 c0 -9 5 -16 10 -16 6 0 10 4 10 9 0 6 -4 13 -10 16 -5 3
-10 -1 -10 -9z"/>
<path d="M167 2305 c-9 -8 -13 -24 -10 -35 5 -20 7 -20 24 -4 20 18 26 54 10
54 -5 0 -16 -7 -24 -15z"/>
<path d="M635 2310 c3 -5 13 -10 21 -10 8 0 14 5 14 10 0 6 -9 10 -21 10 -11
0 -17 -4 -14 -10z"/>
<path d="M80 2270 c0 -19 11 -26 23 -14 8 8 -3 34 -14 34 -5 0 -9 -9 -9 -20z"/>
<path d="M15 2270 c-4 -6 -9 -38 -12 -71 l-6 -60 26 6 c22 6 26 3 32 -27 3
-18 11 -45 17 -60 11 -31 -5 -88 -25 -88 -6 0 -2 -6 8 -14 10 -7 27 -11 37 -8
24 6 35 -25 15 -45 -13 -14 -18 -12 -46 17 -17 18 -31 29 -31 25 0 -5 -7 0
-15 11 -13 18 -14 15 -15 -31 0 -62 21 -156 35 -152 5 2 19 21 30 43 11 21 35
55 53 74 25 27 32 41 28 62 -4 22 -1 27 22 33 15 4 21 10 14 12 -6 3 -10 9 -6
14 3 5 0 9 -6 9 -6 0 -9 4 -5 9 7 12 -24 43 -35 36 -4 -3 -8 16 -7 43 1 57
-11 112 -24 112 -6 0 -7 4 -4 10 3 5 0 7 -8 4 -9 -3 -26 6 -40 21 -17 19 -27
23 -32 15z"/>
<path d="M335 2260 c-8 -14 3 -30 21 -30 8 0 14 9 14 20 0 21 -24 28 -35 10z"/>
<path d="M477 2233 c-15 -15 -6 -33 17 -33 22 0 44 16 35 24 -10 9 -46 15 -52
9z"/>
<path d="M310 2186 c0 -8 5 -18 10 -21 6 -3 10 3 10 14 0 12 -4 21 -10 21 -5
0 -10 -6 -10 -14z"/>
<path d="M385 2160 c-3 -5 1 -10 10 -10 9 0 13 5 10 10 -3 6 -8 10 -10 10 -2
0 -7 -4 -10 -10z"/>
<path d="M24 2058 c3 -13 6 -26 6 -30 0 -5 5 -8 10 -8 6 0 10 14 10 30 0 21
-5 30 -16 30 -12 0 -15 -6 -10 -22z"/>
<path d="M0 2016 c0 -20 3 -36 8 -36 11 0 13 58 2 65 -6 4 -10 -9 -10 -29z"/>
<path d="M481 1060 c0 -8 4 -24 9 -35 5 -13 9 -14 9 -5 0 8 -4 24 -9 35 -5 13
-9 14 -9 5z"/>
<path d="M542 280 c0 -14 2 -19 5 -12 2 6 2 18 0 25 -3 6 -5 1 -5 -13z"/>
<path d="M540 230 c0 -7 3 -10 7 -7 3 4 3 10 0 14 -4 3 -7 0 -7 -7z"/>
<path d="M535 150 c3 -5 11 -10 16 -10 6 0 7 5 4 10 -3 6 -11 10 -16 10 -6 0
-7 -4 -4 -10z"/>
<path d="M542 121 c-11 -7 -11 -9 2 -14 10 -4 16 -1 16 8 0 17 -1 17 -18 6z"/>
<path d="M545 75 c-5 -11 -13 -23 -18 -26 -13 -9 -1 -38 18 -45 24 -10 27 0
17 48 -8 36 -10 40 -17 23z"/>
</g>
</svg>
